<?xml version="1.0" encoding="utf-8"?>
<!DOCTYPE svg PUBLIC "-//W3C//DTD SVG 1.1//EN" "http://www.w3.org/Graphics/SVG/1.1/DTD/svg11.dtd">
<svg xmlns="http://www.w3.org/2000/svg" xmlns:xlink="http://www.w3.org/1999/xlink" version="1.1" id="Layer_1" x="0px" y="0px" width="26px" height="26px" viewBox="0 0 26 26" enable-background="new 0 0 26 26" xml:space="preserve" opacity="0.75">

<circle fill="#000000" cx="13" cy="13" r="3"/>
<path fill="#000000" d="M13,0c-2.85,0-5,5.589-5,13s2.15,13,5,13c2.85,0,5-5.589,5-13S15.85,0,13,0z M13,24.094  c-2.022,0-4.284-4.744-4.284-11.094S10.978,1.906,13,1.906S17.284,6.65,17.284,13S15.022,24.094,13,24.094z"/>
<path fill="#000000" d="M1.741,6.5C0.316,8.968,4.081,13.624,10.5,17.33c6.418,3.705,12.333,4.638,13.758,2.17  c1.425-2.469-2.34-7.125-8.758-10.831C9.081,4.964,3.166,4.031,1.741,6.5z M22.607,18.547c-1.012,1.751-6.251,1.338-11.75-1.838  c-5.499-3.174-8.477-7.505-7.465-9.256c1.011-1.751,6.25-1.338,11.749,1.836S23.618,16.795,22.607,18.547z"/>
<path fill="#000000" d="M1.742,19.499c1.426,2.469,7.34,1.536,13.758-2.17c6.418-3.705,10.184-8.361,8.76-10.829  C22.834,4.032,16.92,4.964,10.5,8.669C4.082,12.375,0.317,17.031,1.742,19.499z M22.607,7.452c1.012,1.752-1.967,6.083-7.465,9.258  c-5.5,3.175-10.739,3.588-11.75,1.836c-1.011-1.751,1.966-6.082,7.465-9.257C16.357,6.114,21.598,5.701,22.607,7.452z"/>
</svg>
