<?xml version="1.0" encoding="utf-8"?>
<!DOCTYPE svg PUBLIC "-//W3C//DTD SVG 1.0//EN" "http://www.w3.org/TR/2001/REC-SVG-20010904/DTD/svg10.dtd">
<svg xmlns="http://www.w3.org/2000/svg" xmlns:xlink="http://www.w3.org/1999/xlink" version="1.0" id="Layer_1" x="0px" y="0px" width="26px" height="26px" viewBox="0 0 26 26" style="enable-background:new 0 0 26 26;" xml:space="preserve" opacity="0.75">
<path style="fill:#000000" d="M0,22v3.4C0,25.7,0.3,26,0.6,26h6.7C7.7,26,8,25.7,8,25.4V22H0z"/>
<path style="fill:#000000" d="M8,5V0.6C8,0.3,7.7,0,7.4,0H0.6C0.3,0,0,0.3,0,0.6V5H8z"/>
<path style="fill:#000000" d="M0,6v15h8V6H0z M5,19H3V8h2"/>
<path style="fill:#000000" d="M18,23v2.4c0,0.4,0.3,0.6,0.6,0.6h6.7c0.4,0,0.6-0.3,0.6-0.6V23H18z"/>
<path style="fill:#000000" d="M26,5V0.6C26,0.3,25.7,0,25.4,0h-6.7C18.3,0,18,0.3,18,0.6V5H26z"/>
<path style="fill:#000000" d="M18,6v16h8V6H18z M21,8h2v12h-2"/>
<path style="fill:#000000" d="M10,24v1.4c0,0.4,0.3,0.6,0.6,0.6h4.7c0.4,0,0.6-0.3,0.6-0.6V24H10z"/>
<path style="fill:#000000" d="M16,7V4.6C16,4.3,15.7,4,15.4,4h-4.7C10.3,4,10,4.3,10,4.6V7H16z"/>
<path style="fill:#000000" d="M10,8v15h6V8H10z M14,20h-2v-9h2"/>
</svg>
