<?xml version="1.0" encoding="utf-8"?>
<!DOCTYPE svg PUBLIC "-//W3C//DTD SVG 1.1//EN" "http://www.w3.org/Graphics/SVG/1.1/DTD/svg11.dtd">
<svg xmlns="http://www.w3.org/2000/svg" xmlns:xlink="http://www.w3.org/1999/xlink" version="1.1" id="Layer_1" x="0px" y="0px" width="26px" height="26px" viewBox="0 0 26 26" enable-background="new 0 0 26 26" xml:space="preserve" opacity="0.75">
<g>
	<path fill="#000000" d="M14.016,24.422c0,0,0-0.819,0-0.905c0-1.168,1.909-2.248,3.986-2.622c0,0,0.627-0.312,0.475-0.904   c-0.66-0.746-0.799-1.537-0.799-1.537c-0.113-0.046-0.275-0.137-0.376-0.262c-0.232-0.295-0.446-0.932-0.399-1.376   c0.048-0.46,0.181-0.314,0.196-0.388c-0.417-0.997-0.218-2.218,0.316-3.113c1.072-1.794,3.405-1.321,3.715-0.477   c2.201-0.383,2.127,2.711,1.829,3.567c0,0,0.2,0.037,0.155,0.821c-0.041,0.786-0.751,1.31-0.751,1.31   c-0.022,0.216-0.303,0.874-0.765,1.454c-0.374,0.737,0.415,0.904,0.415,0.904c2.076,0.374,3.962,1.454,3.962,2.622   c0,0.086,0,0.905,0,0.905c0,0.776-3.132,1.54-5.97,1.54C17.17,25.962,14.016,25.69,14.016,24.422z"/>
</g>
<g>
	<path fill="#000000" d="M0.016,24.422c0,0,0-0.819,0-0.905c0-1.168,1.909-2.248,3.986-2.622c0,0,0.627-0.312,0.475-0.904   c-0.66-0.746-0.799-1.537-0.799-1.537c-0.113-0.046-0.275-0.137-0.376-0.262c-0.232-0.295-0.446-0.932-0.399-1.376   c0.048-0.46,0.181-0.314,0.196-0.388c-0.417-0.997-0.218-2.218,0.316-3.113c1.072-1.794,3.405-1.321,3.715-0.477   c2.201-0.383,2.127,2.711,1.829,3.567c0,0,0.2,0.037,0.155,0.821c-0.041,0.786-0.751,1.31-0.751,1.31   c-0.022,0.216-0.303,0.874-0.765,1.454c-0.374,0.737,0.415,0.904,0.415,0.904c2.076,0.374,3.962,1.454,3.962,2.622   c0,0.086,0,0.905,0,0.905c0,0.776-3.132,1.54-5.97,1.54C3.17,25.962,0.016,25.69,0.016,24.422z"/>
</g>
<path fill="none" stroke="#000000" stroke-width="2" stroke-linecap="round" stroke-linejoin="round" stroke-miterlimit="10" d="  M8.5,10c2.411,0,5.5-1.38,5.5-4.522C14,3.005,11.897,1,8.5,1C4.529,1,3,3.601,3,5.583C3,8.688,6.089,10,8.5,10z"/>
<path fill="none" stroke="#000000" stroke-width="2" stroke-linecap="round" stroke-linejoin="round" stroke-miterlimit="10" d="  M11.201,9.441C12.322,10.516,14.036,11,15.5,11c2.411,0,5.5-1.38,5.5-4.522C21,4.005,18.897,2,15.5,2  c-1.093,0-2.002,0.197-2.744,0.525"/>
<circle fill="#000000" cx="1" cy="15" r="1"/>
<circle fill="#000000" cx="1.5" cy="10.5" r="1.5"/>
<circle fill="#000000" cx="25" cy="14" r="1"/>
<circle fill="#000000" cx="24.5" cy="9.5" r="1.5"/>
</svg>
