<?xml version="1.0" encoding="utf-8"?>
<!DOCTYPE svg PUBLIC "-//W3C//DTD SVG 1.1//EN" "http://www.w3.org/Graphics/SVG/1.1/DTD/svg11.dtd">
<svg xmlns="http://www.w3.org/2000/svg" xmlns:xlink="http://www.w3.org/1999/xlink" version="1.1" id="Layer_1" x="0px" y="0px" width="26px" height="26px" viewBox="0 0 26 26" enable-background="new 0 0 26 26" xml:space="preserve" opacity="0.75">

<path fill="none" stroke="#000000" stroke-width="2" stroke-linecap="round" stroke-linejoin="round" stroke-miterlimit="10" d="  M24,7.689c-0.437,1.332,0,1.914,0,1.914L15.581,20L3.443,16.278c0,0-1.443-0.147-1.443-2.604c0-1.946,1.378-2.476,2.603-2.278"/>
<path fill="none" stroke="#000000" stroke-width="2" stroke-linecap="round" stroke-linejoin="round" stroke-miterlimit="10" d="  M24,9.604c-1.182,3.032,0,5.146,0,5.146l-8.419,10.257L3.443,21.125c0,0-1.443-0.493-1.443-2.75c0-1.371,1.041-2.199,1.041-2.199"/>
<path fill="#000000" d="M24.949,3.529c-0.103-0.3-0.356-0.521-0.664-0.588l-12.52-2.838c-0.323-0.066-0.66,0.043-0.878,0.295  l-8.942,9.952C1.74,10.584,1,11.64,1,13.232c0.499-0.618,1.094-1.495,1.396-1.414l12.298,3.71c0.078,0.021,0.157,0.03,0.235,0.03  c0.268,0,0.528-0.119,0.701-0.331l9.165-10.825C24.995,4.158,25.054,3.826,24.949,3.529z M18.261,5.669l-0.689,0.816  c-0.191,0.226-0.636,0.338-0.989,0.255l-6.419-1.564C9.81,5.091,9.676,4.837,9.865,4.613l0.689-0.819  c0.19-0.225,0.635-0.337,0.989-0.253l6.419,1.562C18.315,5.188,18.45,5.443,18.261,5.669z"/>
</svg>
