<?xml version="1.0" encoding="utf-8"?>
<!DOCTYPE svg PUBLIC "-//W3C//DTD SVG 1.1//EN" "http://www.w3.org/Graphics/SVG/1.1/DTD/svg11.dtd">
<svg xmlns="http://www.w3.org/2000/svg" xmlns:xlink="http://www.w3.org/1999/xlink" version="1.1" id="Layer_1" x="0px" y="0px" width="26px" height="26px" viewBox="0 0 26 26" enable-background="new 0 0 26 26" xml:space="preserve" opacity="0.75">
<path fill="#000000" d="M18,13c0,1.656-1.344,3-3,3h-4c-1.656,0-3-1.344-3-3V3c0-1.657,1.344-3,3-3h4c1.656,0,3,1.343,3,3V13z"/>
<path fill="#000000" d="M15.209,19.02c-2.205,2.206-2.178,2.2-4.379,0l-6.568-6.568C3.055,11.241,3.332,11,4.742,11h16.561  c1.273,0,1.684,0.241,0.476,1.451L15.209,19.02z"/>

<path fill="#000000" d="M24,19v4c0,0.551-0.448,1-1,1H3c-0.552,0-1-0.449-1-1v-4H0v4c0,1.656,1.344,3,3,3h20c1.656,0,3-1.344,3-3v-4  H24z"/>
</svg>
