<?xml version="1.0" encoding="UTF-8" standalone="no"?>
<svg
   xmlns:dc="http://purl.org/dc/elements/1.1/"
   xmlns:cc="http://creativecommons.org/ns#"
   xmlns:rdf="http://www.w3.org/1999/02/22-rdf-syntax-ns#"
   xmlns:svg="http://www.w3.org/2000/svg"
   xmlns="http://www.w3.org/2000/svg"
   xmlns:sodipodi="http://sodipodi.sourceforge.net/DTD/sodipodi-0.dtd"
   xmlns:inkscape="http://www.inkscape.org/namespaces/inkscape"
   version="1.1"
   id="Layer_1"
   x="0px"
   y="0px"
   viewBox="0 0 64 64"
   enable-background="new 0 0 64 64"
   xml:space="preserve"
   inkscape:version="0.48.4 r9939"
   width="64"
   height="64"
   sodipodi:docname="fast.svg" opacity="0.75"><metadata
   id="metadata3073"><rdf:RDF><cc:Work
       rdf:about=""><dc:format>image/svg+xml</dc:format><dc:type
         rdf:resource="http://purl.org/dc/dcmitype/StillImage" /></cc:Work></rdf:RDF></metadata><defs
   id="defs3071" /><sodipodi:namedview
   pagecolor="#ffffff"
   bordercolor="#666666"
   borderopacity="1"
   objecttolerance="10"
   gridtolerance="10"
   guidetolerance="10"
   inkscape:pageopacity="0"
   inkscape:pageshadow="2"
   inkscape:window-width="1920"
   inkscape:window-height="1017"
   id="namedview3069"
   showgrid="false"
   inkscape:zoom="9.0769231"
   inkscape:cx="13"
   inkscape:cy="26.220339"
   inkscape:window-x="1912"
   inkscape:window-y="-8"
   inkscape:window-maximized="1"
   inkscape:current-layer="Layer_1" />
<path
   stroke-miterlimit="10"
   d="m 56.471197,47.292775 c 0,0 0,-0.249494 0.244845,-0.249494 2.203587,-4.241419 3.672646,-8.981827 3.672646,-13.971731 0,-15.718193 -12.731838,-28.6919415 -28.156944,-28.6919415 -15.914794,0 -28.4017859,12.9737485 -28.4017859,28.6919415 0,4.989904 1.2242151,9.730312 3.4278019,13.722236 l 0.2448421,0.498989"
   id="path3047"
   inkscape:connector-curvature="0"
   style="fill:none;stroke:#000000;stroke-width:7.4147439;stroke-linecap:round;stroke-linejoin:round;stroke-miterlimit:10" />
<circle
   cx="13"
   cy="15"
   r="2"
   id="circle3049"
   sodipodi:cx="13"
   sodipodi:cy="15"
   sodipodi:rx="2"
   sodipodi:ry="2"
   style="fill:#000000"
   transform="matrix(2.4484299,0,0,2.4949515,0.1573109,-4.3527221)" />
<path
   d="m 52.308865,31.325087 c -0.489685,0 -20.077123,-1.995963 -20.077123,-1.995963 l 0,7.484855 c 0,0 19.342594,-1.496971 20.321968,-1.746466 0.979371,-0.249496 1.7139,-0.748485 1.7139,-1.746467 -0.244844,-1.247475 -0.979371,-1.995959 -1.958745,-1.995959 z"
   id="path3051"
   inkscape:connector-curvature="0"
   style="fill:#000000" />
<polygon
   stroke-miterlimit="10"
   points="12.8,23 10,23 10,22 16,22 16,23 "
   id="polygon3053"
   style="fill:none;stroke:#000000;stroke-width:2;stroke-linecap:round;stroke-linejoin:round;stroke-miterlimit:10"
   transform="matrix(2.4484299,0,0,2.4949515,0.1573109,-4.3527221)" />
<g
   id="g3055"
   transform="matrix(2.4484299,0,0,2.4949515,0.1573109,-4.3527221)">
	
		<rect
   x="12.7"
   y="4"
   stroke-miterlimit="10"
   width="0.69999999"
   height="2.4000001"
   id="rect3057"
   style="fill:#000000;stroke:#000000;stroke-width:1.12450004;stroke-linecap:round;stroke-linejoin:round;stroke-miterlimit:10" />
	
		<rect
   x="20.700001"
   y="9.5"
   transform="matrix(0.8597,-0.5109,0.5109,0.8597,-1.947,12.5781)"
   stroke-miterlimit="10"
   width="2.4000001"
   height="0.69999999"
   id="rect3059"
   style="fill:#000000;stroke:#000000;stroke-width:1.12450004;stroke-linecap:round;stroke-linejoin:round;stroke-miterlimit:10" />
	
		<rect
   x="20.4"
   y="20.299999"
   transform="matrix(0.8696,0.4938,-0.4938,0.8696,13.0184,-7.9597)"
   stroke-miterlimit="10"
   width="2.4000001"
   height="0.69999999"
   id="rect3061"
   style="fill:#000000;stroke:#000000;stroke-width:1.12450004;stroke-linecap:round;stroke-linejoin:round;stroke-miterlimit:10" />
	<g
   id="g3063">
		
			<rect
   x="2.9000001"
   y="9.5"
   transform="matrix(-0.8597,-0.5109,0.5109,-0.8597,2.5621,20.3698)"
   stroke-miterlimit="10"
   width="2.4000001"
   height="0.69999999"
   id="rect3065"
   style="fill:#000000;stroke:#000000;stroke-width:1.12450004;stroke-linecap:round;stroke-linejoin:round;stroke-miterlimit:10" />
		
			<rect
   x="3.2"
   y="20.299999"
   transform="matrix(-0.8696,0.4938,-0.4938,-0.8696,18.4703,36.4562)"
   stroke-miterlimit="10"
   width="2.4000001"
   height="0.69999999"
   id="rect3067"
   style="fill:#000000;stroke:#000000;stroke-width:1.12450004;stroke-linecap:round;stroke-linejoin:round;stroke-miterlimit:10" />
	</g>
</g>
</svg>