<?xml version="1.0" encoding="utf-8"?>
<!DOCTYPE svg PUBLIC "-//W3C//DTD SVG 1.1//EN" "http://www.w3.org/Graphics/SVG/1.1/DTD/svg11.dtd">
<svg xmlns="http://www.w3.org/2000/svg" xmlns:xlink="http://www.w3.org/1999/xlink" version="1.1" id="Layer_1" x="0px" y="0px" width="26px" height="26px" viewBox="0 0 26 26" enable-background="new 0 0 26 26" xml:space="preserve" opacity="0.75">

<g>
	<g>
		<path fill="#000000" d="M24.4,14.6V24.4H5.6V14.6H24.4 M26,13H4v13h22V13L26,13z"/>
	</g>
</g>
<g>
	<path fill="#000000" d="M20,13l2.252,2.252c-0.017,0.083-0.05,0.16-0.05,0.248c0,0.717,0.581,1.297,1.298,1.297   c0.088,0,0.164-0.033,0.247-0.049L26,19v-6H20z"/>
	<circle fill="#000000" cx="21.5" cy="19.5" r="1.298"/>
	<ellipse fill="#000000" cx="15" cy="19.5" rx="3.926" ry="3.414"/>
	<circle fill="#000000" cx="8.5" cy="19.5" r="1.297"/>
	<path fill="#000000" d="M4,19l2.252-2.252c0.083,0.017,0.16,0.05,0.248,0.05c0.717,0,1.297-0.581,1.297-1.298   c0-0.088-0.033-0.164-0.05-0.247L10,13H4V19z"/>
	<path fill="#000000" d="M7.798,23.5c0-0.717-0.581-1.297-1.298-1.297c-0.088,0-0.164,0.033-0.247,0.049L4,20v6h6l-2.252-2.252   C7.765,23.665,7.798,23.588,7.798,23.5z"/>
	<path fill="#000000" d="M23.5,22.202c-0.717,0-1.297,0.581-1.297,1.298c0,0.088,0.033,0.164,0.05,0.247L20,26h6v-6l-2.252,2.252   C23.665,22.235,23.588,22.202,23.5,22.202z"/>
</g>
<g>
	<circle fill="#000000" cx="18.702" cy="9.378" r="1.297"/>
	<path fill="#000000" d="M2.5,13c0-0.828,0.672-1.5,1.5-1.5h0.82l0.037-0.128l11.577-6.339l0.885,0.258   c0.025,0.08,0.034,0.164,0.077,0.241c0.344,0.63,1.132,0.859,1.762,0.515c0.076-0.042,0.128-0.107,0.191-0.162l0.887,0.26   l2.017,3.682l-0.259,0.886c-0.079,0.024-0.163,0.033-0.24,0.075c-0.293,0.16-0.488,0.422-0.591,0.713h3.831l-2.586-4.723h0.001   l-2.883-5.262l-5.264,2.882h0.001L5.492,9.2l-5.263,2.882L2.5,16.229V13z"/>
	<path fill="#000000" d="M11.36,9.506C10.489,9.982,9.862,10.704,9.51,11.5h7.233c-0.058-0.305-0.145-0.604-0.299-0.885   C15.537,8.961,13.262,8.465,11.36,9.506z"/>
</g>
</svg>
