<?xml version="1.0" encoding="utf-8"?>
<!DOCTYPE svg PUBLIC "-//W3C//DTD SVG 1.1//EN" "http://www.w3.org/Graphics/SVG/1.1/DTD/svg11.dtd">
<svg xmlns="http://www.w3.org/2000/svg" xmlns:xlink="http://www.w3.org/1999/xlink" version="1.1" id="Layer_1" x="0px" y="0px" width="26px" height="26px" viewBox="0 0 26 26" enable-background="new 0 0 26 26" xml:space="preserve" opacity="0.75">

<g>
	<path fill="#000000" d="M25,14c-0.552,0-9.448,0-10,0s-1,0.448-1,1v11h12V15C26,14.448,25.552,14,25,14z M24,24h-8v-7h8V24z"/>
	
		<polyline fill="none" stroke="#000000" stroke-width="1.4" stroke-linecap="round" stroke-linejoin="round" stroke-miterlimit="10" points="   18.161,19.161 19,20 20.677,18.323  "/>
	
		<polyline fill="none" stroke="#000000" stroke-width="1.4" stroke-linecap="round" stroke-linejoin="round" stroke-miterlimit="10" points="   18.161,22.161 19,23 20.677,21.323  "/>
</g>
<path fill="#000000" d="M12,15.989c-2.203,0-3.988-1.786-3.988-3.988c0-2.202,1.786-3.988,3.988-3.988  c2.202,0,3.988,1.785,3.988,3.987H24v-1.522l-3.571-0.583c-0.211-0.846-0.543-1.641-0.98-2.369L21.53,4.56l-2.122-2.121L16.48,4.544  c-0.73-0.442-1.53-0.779-2.382-0.991L13.476,0h-3L9.898,3.541C9.046,3.751,8.242,4.083,7.509,4.523L4.59,2.437L2.468,4.558  l2.054,2.937C4.078,8.23,3.74,9.033,3.526,9.891L0,10.478v3l3.522,0.624c0.212,0.856,0.55,1.659,0.996,2.395l-2.082,2.911  l2.121,2.123l2.94-2.059c0.734,0.441,1.537,0.776,2.389,0.986l0.59,3.543H12V15.989z"/>
</svg>
