<?xml version="1.0" encoding="utf-8"?>
<!DOCTYPE svg PUBLIC "-//W3C//DTD SVG 1.1//EN" "http://www.w3.org/Graphics/SVG/1.1/DTD/svg11.dtd">
<svg xmlns="http://www.w3.org/2000/svg" xmlns:xlink="http://www.w3.org/1999/xlink" version="1.1" id="Layer_1" x="0px" y="0px" width="26px" height="26px" viewBox="0 0 26 26" enable-background="new 0 0 26 26" xml:space="preserve" opacity="0.75">
<g>
	<circle fill="#000000" cx="13" cy="3" r="2.813"/>
</g>


<path fill="#000000" d="M18.813,6c0,2.658-1.319,3.813-5.813,3.813S7.188,8.658,7.188,6S10.342,2.188,13,2.188  S18.813,3.342,18.813,6z"/>
<path fill="none" stroke="#000000" stroke-width="2" stroke-linecap="round" stroke-linejoin="round" stroke-miterlimit="10" d="  M19,11c0,0,4-0.924,4-7"/>
<path fill="none" stroke="#000000" stroke-width="2" stroke-linecap="round" stroke-linejoin="round" stroke-miterlimit="10" d="  M18,17c0,0,6,0.271,6,6"/>
<path fill="none" stroke="#000000" stroke-width="2" stroke-linecap="round" stroke-linejoin="round" stroke-miterlimit="10" d="  M19,14c0,0,3,0,6,0"/>
<path fill="none" stroke="#000000" stroke-width="2" stroke-linecap="round" stroke-linejoin="round" stroke-miterlimit="10" d="  M7,11c0,0-4-0.924-4-7"/>
<path fill="none" stroke="#000000" stroke-width="2" stroke-linecap="round" stroke-linejoin="round" stroke-miterlimit="10" d="  M8,17c0,0-6,0.271-6,6"/>
<path fill="none" stroke="#000000" stroke-width="2" stroke-linecap="round" stroke-linejoin="round" stroke-miterlimit="10" d="  M7,14c0,0-3,0-6,0"/>
<path fill="#000000" d="M13,11.2c-7.319,0-7.813-4.998-7.813,1.8c0,4.484,2.972,8.565,6.813,9.654c0,0,0-4.654,0-7.654s2-3,2,0  s0,7.654,0,7.654c3.841-1.089,6.813-5.17,6.813-9.654C20.813,6.782,20.017,11.2,13,11.2z"/>
</svg>
