<?xml version="1.0" encoding="UTF-8" standalone="no"?>
<svg
   xmlns:dc="http://purl.org/dc/elements/1.1/"
   xmlns:cc="http://creativecommons.org/ns#"
   xmlns:rdf="http://www.w3.org/1999/02/22-rdf-syntax-ns#"
   xmlns:svg="http://www.w3.org/2000/svg"
   xmlns="http://www.w3.org/2000/svg"
   xmlns:sodipodi="http://sodipodi.sourceforge.net/DTD/sodipodi-0.dtd"
   xmlns:inkscape="http://www.inkscape.org/namespaces/inkscape"
   width="64px"
   height="64px"
   viewBox="0 0 64 64"
   id="svg3837"
   version="1.1"
   inkscape:version="0.48.4 r9939"
   sodipodi:docname="Simple" opacity="0.75">
  <defs
     id="defs3839">
    <clipPath
       id="clipPath16">
      <path
         inkscape:connector-curvature="0"
         id="path18"
         d="m 0,821.79303 4081,0 L 4081,0 0,0 0,821.79303 z" />
    </clipPath>
  </defs>
  <sodipodi:namedview
     id="base"
     pagecolor="#ffffff"
     bordercolor="#666666"
     borderopacity="1.0"
     inkscape:pageopacity="0.0"
     inkscape:pageshadow="2"
     inkscape:zoom="5.5"
     inkscape:cx="32"
     inkscape:cy="32"
     inkscape:current-layer="layer1"
     showgrid="true"
     inkscape:document-units="px"
     inkscape:grid-bbox="true"
     inkscape:window-width="745"
     inkscape:window-height="643"
     inkscape:window-x="2128"
     inkscape:window-y="208"
     inkscape:window-maximized="0" />
  <metadata
     id="metadata3842">
    <rdf:RDF>
      <cc:Work
         rdf:about="">
        <dc:format>image/svg+xml</dc:format>
        <dc:type
           rdf:resource="http://purl.org/dc/dcmitype/StillImage" />
        <dc:title></dc:title>
      </cc:Work>
    </rdf:RDF>
  </metadata>
  <g
     id="layer1"
     inkscape:label="Layer 1"
     inkscape:groupmode="layer">
    <g
       transform="matrix(0.06618505,0,0,0.06227119,-0.04090009,0.01624718)"
       id="g3823">
      <title
         id="title3825">Layer 1</title>
      <g
         transform="matrix(1.25,0,0,-1.25,0,1027.2413)"
         id="g3827">
        <g
           id="g3829">
          <g
             clip-path="url(#clipPath16)"
             id="g3831">
            <g
               id="g3833">
              <path
                 style="fill:#000000;fill-rule:nonzero"
                 inkscape:connector-curvature="0"
                 d="m 299.48441,204.8584 -95.10698,94.26101 118.62297,118.70701 191.53598,0 L 299.48441,204.8584 z M 778.47839,821.7934 608.02344,649.22644 585.7204,671.46838 520.57043,605.81335 c 0,0 -12.49002,12.23005 -24.48202,24.06604 -11.987,11.83899 -27.97501,16.60999 -45.83301,-0.11096 C 342.21539,528.61938 158.84428,337.6994 152.89841,332.46939 c -6.76403,-5.961 -15.942,-9.52899 -23.89202,-1.59299 -4.28199,4.26999 -10.04601,9.776 -17.646,16.608 -21.708009,19.51099 -42.911012,-8.402 -42.911012,-8.402 l -27.513,-27.137 110.003032,-109.505 -33.01202,-32.59599 -51.816009,51.013 C 40.654399,243.73939 15.789369,211.0014 15.789369,211.0014 L 0.494389,196.1494 198.3044,3.99e-4 l 15.53399,15.66 c 0,0 34.126,23.322998 3.05098,56.755997 l -45.47799,44.773004 32.71598,32.303 109.94408,-109.447002 27.716,27.827015 c 0,0 29.10199,19.882988 2.60199,48.392987 -4.72,5.07499 -6.09008,5.947 -12.358,12.772 -9.07901,9.88101 2.358,23.1 2.358,23.1 0,0 287.53098,284.52508 296.822,296.80397 9.29095,12.28 12.27697,34.31498 -3.87403,50.71399 -16.151,16.40006 -20.23101,19.84903 -20.23101,19.84903 l 65.15002,65.66602 -23.06409,23 129.28601,130.36499 0,83.258 6e-5,0 z"
                 id="path3835" />
            </g>
          </g>
        </g>
      </g>
    </g>
  </g>
</svg>
