<?xml version="1.0" encoding="utf-8"?>
<!DOCTYPE svg PUBLIC "-//W3C//DTD SVG 1.1//EN" "http://www.w3.org/Graphics/SVG/1.1/DTD/svg11.dtd">
<svg xmlns="http://www.w3.org/2000/svg" xmlns:xlink="http://www.w3.org/1999/xlink" version="1.1" id="Layer_1" x="0px" y="0px" width="26px" height="26px" viewBox="0 0 26 26" enable-background="new 0 0 26 26" xml:space="preserve" opacity="0.75">

<g>
	<g>
		<path fill="#000000" d="M13,14.824c-0.16,0-0.318-0.025-0.475-0.076l-7.28-2.428c-0.132,0.343-0.198,0.785-0.198,1.43    c0.475,0.275,0.938,0.828,0.938,1.781c0,0.584-0.292,1.004-0.543,1.283c1.08,1.253,4.052,2.154,7.559,2.154    c4.419,0,8-1.43,8-3.191c0-0.389,0-1.978,0-3.538l-7.528,2.509C13.318,14.799,13.16,14.824,13,14.824z"/>
	</g>
	<g>
		<path fill="#000000" d="M25.158,8.526l-12-4c-0.104-0.034-0.213-0.034-0.316,0l-12,4C0.638,8.594,0.5,8.785,0.5,9    s0.138,0.406,0.342,0.474l3.986,1.329c0.478-0.389,1.125-0.657,1.969-0.99c0.207-0.082,0.602-0.242,0.83-0.336    c3.695-1.526,5.134-1.939,5.159-1.947c0.309-0.104,0.653,0.063,0.759,0.378c0.105,0.314-0.063,0.654-0.378,0.76    c-0.024,0.008-1.428,0.409-5.081,1.919c-0.235,0.097-0.459,0.185-0.672,0.269c-0.433,0.171-0.792,0.308-1.093,0.446l6.521,2.173    C12.894,13.491,12.946,13.5,13,13.5s0.106-0.009,0.158-0.026l12-4C25.362,9.406,25.5,9.215,25.5,9S25.362,8.594,25.158,8.526z"/>
	</g>
</g>
<path fill="none" stroke="#000000" stroke-width="1.2" stroke-linecap="round" stroke-linejoin="round" stroke-miterlimit="10" d="  M13,6.792c0,0-2.467,0.828-6.186,2.364C4.251,10.215,3.083,10.707,3,15"/>
<circle fill="#000000" cx="3" cy="15" r="1.285"/>
<path fill="#000000" d="M3.516,15.018c0.133,0.482,0.457,1.748,0.457,3.873S2.581,22,2.001,22c-0.375,0-1.954-0.852-1.954-1  c0-0.322,2.5-1.666,2.5-5.982C2.547,15.018,3.192,13.843,3.516,15.018z"/>
</svg>
