<?xml version="1.0"?>
<svg width="973" height="1027" xmlns="http://www.w3.org/2000/svg" xmlns:svg="http://www.w3.org/2000/svg" opacity="0.7">
 <metadata id="metadata8">image/svg+xml</metadata>
 <defs>
  <clipPath id="clipPath16">
   <path id="path18" d="m0,821.79303l4081,0l0,-821.79303l-4081,0l0,821.79303z"/>
  </clipPath>
 </defs>
 <g>
  <title>Layer 1</title>
  <g id="g10" transform="matrix(1.25,0,0,-1.25,0,1027.2413)">
   <g id="g12">
    <g id="g14" clip-path="url(#clipPath16)">
     <g id="g28">
      <path fill="#000000" fill-rule="nonzero" id="path30" d="m299.484406,204.858398l-95.106979,94.261017l118.622971,118.707001l191.53598,0l-215.051971,-212.968018zm478.993988,616.934998l-170.454956,-172.566956l-22.30304,22.241943l-65.149963,-65.655029c0,0 -12.490021,12.230042 -24.482025,24.06604c-11.987,11.838989 -27.975006,16.609985 -45.833008,-0.110962c-108.040009,-101.149048 -291.411118,-292.069031 -297.356995,-297.299042c-6.764023,-5.960999 -15.942001,-9.528992 -23.892014,-1.592987c-4.28199,4.269989 -10.046013,9.776001 -17.646004,16.608002c-21.708008,19.510986 -42.911011,-8.402008 -42.911011,-8.402008l-27.513,-27.136993l110.003029,-109.505005l-33.012016,-32.595993l-51.81601,51.013c-25.456982,22.881989 -50.322012,-9.856003 -50.322012,-9.856003l-15.29498,-14.852005l197.810008,-196.148999l15.533997,15.66c0,0 34.125992,23.322998 3.05098,56.755997l-45.477997,44.773003l32.715988,32.303001l109.944077,-109.447002l27.716003,27.827015c0,0 29.10199,19.882988 2.60199,48.39299c-4.720001,5.074989 -6.090088,5.946999 -12.358002,12.771996c-9.07901,9.881012 2.358002,23.100006 2.358002,23.100006c0,0 287.530975,284.52507 296.821991,296.80397c9.290955,12.279999 12.276978,34.314972 -3.874023,50.713989c-16.151001,16.400055 -20.231018,19.84903 -20.231018,19.84903l65.150024,65.666016l-23.064087,23l129.286011,130.36499l0,83.257996l0.000061,0z"/>
     </g>
    </g>
   </g>
  </g>
 </g>
</svg>